<svg width="425" height="425" viewBox="0 0 425 425" fill="none" xmlns="http://www.w3.org/2000/svg">
<rect x="35.8633" y="33.6305" width="355.505" height="355.505" rx="177.753" stroke="white" stroke-width="1.78571"/>
<rect x="35.8633" y="33.6305" width="355.505" height="355.505" rx="177.753" stroke="white" stroke-width="1.78571"/>
<rect x="178.78" y="176.547" width="69.6725" height="69.6725" rx="34.8363" stroke="white" stroke-width="1.78571"/>
<rect x="196.645" y="194.412" width="33.9434" height="33.9434" rx="16.9717" stroke="white" stroke-width="1.78571"/>
<rect x="160.915" y="158.682" width="105.402" height="105.402" rx="52.7008" stroke="white" stroke-width="1.78571"/>
<rect x="143.051" y="140.818" width="141.131" height="141.131" rx="70.5654" stroke="white" stroke-width="1.78571"/>
<rect x="125.187" y="122.953" width="176.86" height="176.86" rx="88.4299" stroke="white" stroke-width="1.78571"/>
<rect x="107.322" y="105.089" width="212.589" height="212.589" rx="106.294" stroke="white" stroke-width="1.78571"/>
<rect x="89.4576" y="87.2242" width="248.318" height="248.318" rx="124.159" stroke="white" stroke-width="1.78571"/>
<rect x="71.5928" y="69.3598" width="284.047" height="284.047" rx="142.024" stroke="white" stroke-width="1.78571"/>
<rect x="53.7279" y="51.4955" width="319.776" height="319.776" rx="159.888" stroke="white" stroke-width="1.78571"/>
<rect x="196.428" y="25.0001" width="33.9286" height="16.0714" fill="#FFCC01"/>
<rect x="201.335" y="43.9027" width="23.4472" height="14.515" fill="#FFCC01"/>
<rect x="201.335" y="61.7679" width="23.4472" height="14.515" fill="#FFCC01"/>
<rect x="201.335" y="79.632" width="23.4472" height="14.515" fill="#FFCC01"/>
<rect x="201.335" y="97.4968" width="23.4472" height="14.515" fill="#FFCC01"/>
<rect x="201.335" y="115.361" width="23.4472" height="14.515" fill="#FFCC01"/>
<rect x="201.335" y="133.226" width="23.4472" height="14.515" fill="#FFCC01"/>
<rect x="201.335" y="151.09" width="23.4472" height="14.515" fill="#FFCC01"/>
<rect x="201.335" y="168.955" width="23.4472" height="14.515" fill="#FFCC01"/>
<rect x="201.335" y="186.82" width="23.4472" height="14.515" fill="#FFCC01"/>
<path opacity="0.7" d="M200.548 30.7339L202.626 30.0121H203.524V37.9131H202.488V31.1416L200.807 31.6375L200.548 30.7339ZM205.265 36.1059C205.033 35.4925 204.918 34.7781 204.918 33.9626C204.918 33.1472 205.033 32.4346 205.265 31.8248C205.5 31.2114 205.849 30.7321 206.312 30.3868C206.774 30.0415 207.325 29.8689 207.964 29.8689C208.607 29.8689 209.158 30.0415 209.617 30.3868C210.08 30.7321 210.427 31.2114 210.659 31.8248C210.894 32.4346 211.011 33.1472 211.011 33.9626C211.011 34.7781 210.894 35.4925 210.659 36.1059C210.427 36.7193 210.08 37.1987 209.617 37.5439C209.158 37.8892 208.607 38.0618 207.964 38.0618C207.325 38.0618 206.774 37.8892 206.312 37.5439C205.849 37.1987 205.5 36.7193 205.265 36.1059ZM206.488 31.6871C206.143 32.2234 205.97 32.9819 205.97 33.9626C205.97 34.9433 206.143 35.7 206.488 36.2326C206.837 36.7652 207.329 37.0315 207.964 37.0315C208.604 37.0315 209.098 36.7652 209.447 36.2326C209.799 35.6963 209.975 34.9397 209.975 33.9626C209.975 32.9819 209.799 32.2234 209.447 31.6871C209.098 31.1508 208.604 30.8827 207.964 30.8827C207.329 30.8827 206.837 31.1508 206.488 31.6871ZM212.372 36.1059C212.141 35.4925 212.025 34.7781 212.025 33.9626C212.025 33.1472 212.141 32.4346 212.372 31.8248C212.607 31.2114 212.956 30.7321 213.419 30.3868C213.882 30.0415 214.433 29.8689 215.072 29.8689C215.715 29.8689 216.266 30.0415 216.725 30.3868C217.188 30.7321 217.535 31.2114 217.766 31.8248C218.001 32.4346 218.119 33.1472 218.119 33.9626C218.119 34.7781 218.001 35.4925 217.766 36.1059C217.535 36.7193 217.188 37.1987 216.725 37.5439C216.266 37.8892 215.715 38.0618 215.072 38.0618C214.433 38.0618 213.882 37.8892 213.419 37.5439C212.956 37.1987 212.607 36.7193 212.372 36.1059ZM213.595 31.6871C213.25 32.2234 213.077 32.9819 213.077 33.9626C213.077 34.9433 213.25 35.7 213.595 36.2326C213.944 36.7652 214.437 37.0315 215.072 37.0315C215.711 37.0315 216.205 36.7652 216.554 36.2326C216.907 35.6963 217.083 34.9397 217.083 33.9626C217.083 32.9819 216.907 32.2234 216.554 31.6871C216.205 31.1508 215.711 30.8827 215.072 30.8827C214.437 30.8827 213.944 31.1508 213.595 31.6871ZM219.017 31.6155C219.017 31.1306 219.186 30.7192 219.524 30.3813C219.865 30.0397 220.29 29.8689 220.797 29.8689C221.303 29.8689 221.728 30.0378 222.069 30.3758C222.411 30.7137 222.582 31.1269 222.582 31.6155C222.582 32.1077 222.413 32.5227 222.075 32.8607C221.741 33.1986 221.315 33.3676 220.797 33.3676C220.29 33.3676 219.865 33.1986 219.524 32.8607C219.186 32.5191 219.017 32.104 219.017 31.6155ZM219.546 36.7946L224.791 30.9268L225.348 31.2353L220.086 37.1142L219.546 36.7946ZM219.893 31.6155C219.893 31.8763 219.977 32.0966 220.146 32.2766C220.319 32.4529 220.536 32.5411 220.797 32.5411C221.061 32.5411 221.278 32.4511 221.447 32.2711C221.616 32.0911 221.7 31.8726 221.7 31.6155C221.7 31.3583 221.616 31.1416 221.447 30.9653C221.278 30.789 221.061 30.7009 220.797 30.7009C220.536 30.7009 220.319 30.789 220.146 30.9653C219.977 31.1416 219.893 31.3583 219.893 31.6155ZM222.934 37.5439C222.593 37.2023 222.422 36.7873 222.422 36.2987C222.422 35.8102 222.593 35.397 222.934 35.059C223.276 34.7211 223.7 34.5522 224.207 34.5522C224.714 34.5522 225.136 34.7211 225.474 35.059C225.816 35.397 225.987 35.8102 225.987 36.2987C225.987 36.7873 225.816 37.2023 225.474 37.5439C225.136 37.8819 224.714 38.0508 224.207 38.0508C223.7 38.0508 223.276 37.8819 222.934 37.5439ZM223.557 35.6486C223.388 35.8249 223.304 36.0416 223.304 36.2987C223.304 36.5559 223.388 36.7726 223.557 36.9489C223.726 37.1252 223.943 37.2134 224.207 37.2134C224.468 37.2134 224.683 37.1252 224.852 36.9489C225.024 36.7726 225.111 36.5559 225.111 36.2987C225.111 36.0416 225.024 35.8249 224.852 35.6486C224.683 35.4723 224.468 35.3841 224.207 35.3841C223.943 35.3841 223.726 35.4723 223.557 35.6486Z" fill="white"/>
<path opacity="0.7" d="M206.985 52.6543C206.478 52.1621 206.224 51.5248 206.224 50.7425C206.224 49.9601 206.478 49.3228 206.985 48.8306C207.495 48.3384 208.149 48.0923 208.946 48.0923C209.743 48.0923 210.395 48.3384 210.902 48.8306C211.409 49.3228 211.662 49.9601 211.662 50.7425C211.662 51.3485 211.501 51.8793 211.177 52.3348H211.188L208.643 56.1365H207.458L209.332 53.3706C209.163 53.3853 209.034 53.3926 208.946 53.3926C208.149 53.3926 207.495 53.1465 206.985 52.6543ZM207.266 50.7425C207.266 51.242 207.42 51.6442 207.728 51.9491C208.041 52.2503 208.446 52.4009 208.946 52.4009C209.446 52.4009 209.85 52.2503 210.158 51.9491C210.47 51.6442 210.626 51.242 210.626 50.7425C210.626 50.2429 210.47 49.8444 210.158 49.5468C209.85 49.2456 209.446 49.095 208.946 49.095C208.446 49.095 208.041 49.2475 207.728 49.5523C207.42 49.8535 207.266 50.2502 207.266 50.7425ZM212.836 54.3293C212.604 53.7159 212.489 53.0014 212.489 52.186C212.489 51.3706 212.604 50.658 212.836 50.0482C213.071 49.4348 213.42 48.9555 213.883 48.6102C214.346 48.2649 214.896 48.0923 215.536 48.0923C216.178 48.0923 216.729 48.2649 217.189 48.6102C217.651 48.9555 217.998 49.4348 218.23 50.0482C218.465 50.658 218.582 51.3706 218.582 52.186C218.582 53.0014 218.465 53.7159 218.23 54.3293C217.998 54.9427 217.651 55.422 217.189 55.7673C216.729 56.1126 216.178 56.2852 215.536 56.2852C214.896 56.2852 214.346 56.1126 213.883 55.7673C213.42 55.422 213.071 54.9427 212.836 54.3293ZM214.059 49.9105C213.714 50.4468 213.541 51.2053 213.541 52.186C213.541 53.1667 213.714 53.9234 214.059 54.456C214.408 54.9886 214.9 55.2549 215.536 55.2549C216.175 55.2549 216.669 54.9886 217.018 54.456C217.37 53.9197 217.547 53.1631 217.547 52.186C217.547 51.2053 217.37 50.4468 217.018 49.9105C216.669 49.3742 216.175 49.1061 215.536 49.1061C214.9 49.1061 214.408 49.3742 214.059 49.9105Z" fill="white"/>
<path opacity="0.7" d="M206.246 71.8352C206.246 71.4128 206.355 71.0381 206.571 70.7112C206.788 70.3806 207.089 70.1161 207.475 69.9178C207.174 69.7268 206.937 69.4843 206.764 69.1905C206.591 68.8966 206.505 68.5624 206.505 68.1877C206.505 67.8241 206.573 67.4972 206.709 67.207C206.845 66.9168 207.029 66.6836 207.26 66.5073C207.491 66.3273 207.75 66.1914 208.037 66.0995C208.323 66.004 208.625 65.9563 208.94 65.9563C209.26 65.9563 209.563 66.004 209.85 66.0995C210.14 66.1914 210.401 66.3273 210.632 66.5073C210.863 66.6836 211.047 66.9168 211.183 67.207C211.323 67.4972 211.392 67.8241 211.392 68.1877C211.392 68.5624 211.306 68.8966 211.133 69.1905C210.961 69.4843 210.724 69.7268 210.423 69.9178C210.808 70.1161 211.109 70.3806 211.326 70.7112C211.543 71.0381 211.651 71.4128 211.651 71.8352C211.651 72.5551 211.398 73.1208 210.891 73.5322C210.388 73.9436 209.738 74.1493 208.94 74.1493C208.151 74.1493 207.504 73.9436 207.001 73.5322C206.498 73.1208 206.246 72.5551 206.246 71.8352ZM207.282 71.7635C207.282 72.208 207.434 72.5496 207.739 72.7883C208.044 73.0234 208.445 73.141 208.94 73.141C209.444 73.141 209.848 73.0234 210.153 72.7883C210.457 72.5496 210.61 72.208 210.61 71.7635C210.61 71.3264 210.457 70.9903 210.153 70.7553C209.848 70.5202 209.444 70.4026 208.94 70.4026C208.445 70.4026 208.044 70.5202 207.739 70.7553C207.434 70.9903 207.282 71.3264 207.282 71.7635ZM207.541 68.2098C207.541 68.6101 207.677 68.9224 207.949 69.1464C208.221 69.3668 208.551 69.477 208.94 69.477C209.333 69.477 209.664 69.3668 209.932 69.1464C210.204 68.9224 210.34 68.6101 210.34 68.2098C210.34 67.7947 210.208 67.4825 209.943 67.2731C209.679 67.0637 209.345 66.9591 208.94 66.9591C208.54 66.9591 208.206 67.0637 207.938 67.2731C207.673 67.4825 207.541 67.7947 207.541 68.2098ZM212.93 72.1933C212.698 71.5799 212.582 70.8655 212.582 70.05C212.582 69.2346 212.698 68.522 212.93 67.9122C213.165 67.2988 213.514 66.8195 213.976 66.4742C214.439 66.1289 214.99 65.9563 215.629 65.9563C216.272 65.9563 216.823 66.1289 217.282 66.4742C217.745 66.8195 218.092 67.2988 218.324 67.9122C218.559 68.522 218.676 69.2346 218.676 70.05C218.676 70.8655 218.559 71.5799 218.324 72.1933C218.092 72.8067 217.745 73.2861 217.282 73.6313C216.823 73.9766 216.272 74.1493 215.629 74.1493C214.99 74.1493 214.439 73.9766 213.976 73.6313C213.514 73.2861 213.165 72.8067 212.93 72.1933ZM214.153 67.7745C213.807 68.3108 213.635 69.0693 213.635 70.05C213.635 71.0307 213.807 71.7874 214.153 72.32C214.502 72.8526 214.994 73.1189 215.629 73.1189C216.268 73.1189 216.762 72.8526 217.111 72.32C217.464 71.7837 217.64 71.0271 217.64 70.05C217.64 69.0693 217.464 68.3108 217.111 67.7745C216.762 67.2382 216.268 66.9701 215.629 66.9701C214.994 66.9701 214.502 67.2382 214.153 67.7745Z" fill="white"/>
<path opacity="0.7" d="M207.174 84.9615V83.9643H212.105V84.9009L209.229 91.8652H208.132L210.986 84.9615H207.174ZM212.893 90.058C212.661 89.4446 212.546 88.7302 212.546 87.9148C212.546 87.0993 212.661 86.3867 212.893 85.777C213.128 85.1636 213.477 84.6842 213.939 84.3389C214.402 83.9937 214.953 83.821 215.592 83.821C216.235 83.821 216.786 83.9937 217.245 84.3389C217.708 84.6842 218.055 85.1636 218.287 85.777C218.522 86.3867 218.639 87.0993 218.639 87.9148C218.639 88.7302 218.522 89.4446 218.287 90.058C218.055 90.6715 217.708 91.1508 217.245 91.4961C216.786 91.8414 216.235 92.014 215.592 92.014C214.953 92.014 214.402 91.8414 213.939 91.4961C213.477 91.1508 213.128 90.6715 212.893 90.058ZM214.116 85.6392C213.771 86.1755 213.598 86.934 213.598 87.9148C213.598 88.8955 213.771 89.6522 214.116 90.1848C214.465 90.7174 214.957 90.9837 215.592 90.9837C216.232 90.9837 216.726 90.7174 217.075 90.1848C217.427 89.6485 217.603 88.8918 217.603 87.9148C217.603 86.934 217.427 86.1755 217.075 85.6392C216.726 85.103 216.232 84.8348 215.592 84.8348C214.957 84.8348 214.465 85.103 214.116 85.6392Z" fill="white"/>
<path opacity="0.7" d="M206.224 107.212C206.224 106.609 206.382 106.084 206.698 105.636L209.238 101.829H210.434L208.571 104.583C208.74 104.569 208.865 104.561 208.946 104.561C209.739 104.561 210.39 104.807 210.896 105.3C211.407 105.792 211.662 106.429 211.662 107.212C211.662 107.994 211.407 108.635 210.896 109.134C210.39 109.63 209.739 109.878 208.946 109.878C208.149 109.878 207.495 109.63 206.985 109.134C206.478 108.635 206.224 107.994 206.224 107.212ZM207.728 106.016C207.42 106.313 207.266 106.712 207.266 107.212C207.266 107.711 207.42 108.113 207.728 108.418C208.041 108.719 208.446 108.87 208.946 108.87C209.442 108.87 209.846 108.718 210.158 108.413C210.47 108.108 210.626 107.707 210.626 107.212C210.626 106.719 210.47 106.323 210.158 106.021C209.846 105.717 209.442 105.564 208.946 105.564C208.446 105.564 208.041 105.715 207.728 106.016ZM212.836 107.922C212.604 107.309 212.489 106.594 212.489 105.779C212.489 104.964 212.604 104.251 212.836 103.641C213.071 103.028 213.42 102.548 213.883 102.203C214.346 101.858 214.896 101.685 215.536 101.685C216.178 101.685 216.729 101.858 217.189 102.203C217.651 102.548 217.998 103.028 218.23 103.641C218.465 104.251 218.582 104.964 218.582 105.779C218.582 106.594 218.465 107.309 218.23 107.922C217.998 108.536 217.651 109.015 217.189 109.36C216.729 109.706 216.178 109.878 215.536 109.878C214.896 109.878 214.346 109.706 213.883 109.36C213.42 109.015 213.071 108.536 212.836 107.922ZM214.059 103.503C213.714 104.04 213.541 104.798 213.541 105.779C213.541 106.76 213.714 107.516 214.059 108.049C214.408 108.582 214.9 108.848 215.536 108.848C216.175 108.848 216.669 108.582 217.018 108.049C217.37 107.513 217.547 106.756 217.547 105.779C217.547 104.798 217.37 104.04 217.018 103.503C216.669 102.967 216.175 102.699 215.536 102.699C214.9 102.699 214.408 102.967 214.059 103.503Z" fill="white"/>
<path opacity="0.7" d="M206.378 126.046L207.266 125.539C207.372 125.921 207.576 126.213 207.877 126.415C208.178 126.614 208.547 126.713 208.985 126.713C209.477 126.713 209.877 126.584 210.186 126.327C210.498 126.07 210.654 125.714 210.654 125.258C210.654 124.799 210.5 124.441 210.191 124.184C209.886 123.923 209.491 123.793 209.007 123.793H206.77L207.067 119.693H211.387V120.68H208.015L207.877 122.779H209.029C209.385 122.779 209.721 122.834 210.037 122.944C210.356 123.051 210.639 123.207 210.885 123.412C211.131 123.615 211.326 123.875 211.469 124.195C211.616 124.511 211.69 124.865 211.69 125.258C211.69 125.772 211.561 126.222 211.304 126.608C211.051 126.99 210.722 127.275 210.318 127.462C209.914 127.649 209.469 127.743 208.985 127.743C208.378 127.743 207.839 127.598 207.365 127.308C206.895 127.014 206.566 126.593 206.378 126.046ZM212.764 125.787C212.533 125.174 212.417 124.459 212.417 123.644C212.417 122.828 212.533 122.116 212.764 121.506C212.999 120.893 213.348 120.413 213.811 120.068C214.274 119.723 214.825 119.55 215.464 119.55C216.107 119.55 216.658 119.723 217.117 120.068C217.58 120.413 217.927 120.893 218.158 121.506C218.393 122.116 218.511 122.828 218.511 123.644C218.511 124.459 218.393 125.174 218.158 125.787C217.927 126.401 217.58 126.88 217.117 127.225C216.658 127.57 216.107 127.743 215.464 127.743C214.825 127.743 214.274 127.57 213.811 127.225C213.348 126.88 212.999 126.401 212.764 125.787ZM213.987 121.368C213.642 121.905 213.469 122.663 213.469 123.644C213.469 124.625 213.642 125.381 213.987 125.914C214.336 126.447 214.829 126.713 215.464 126.713C216.103 126.713 216.597 126.447 216.946 125.914C217.299 125.378 217.475 124.621 217.475 123.644C217.475 122.663 217.299 121.905 216.946 121.368C216.597 120.832 216.103 120.564 215.464 120.564C214.829 120.564 214.336 120.832 213.987 121.368Z" fill="white"/>
<path opacity="0.7" d="M206.501 143.96V142.974L209.333 137.558H210.463L207.631 142.974H210.529V140.743H211.581V142.974H212.54V143.96H211.581V145.459H210.529V143.96H206.501ZM213.631 143.652C213.4 143.038 213.284 142.324 213.284 141.509C213.284 140.693 213.4 139.981 213.631 139.371C213.866 138.757 214.215 138.278 214.678 137.933C215.141 137.588 215.692 137.415 216.331 137.415C216.974 137.415 217.525 137.588 217.984 137.933C218.447 138.278 218.794 138.757 219.025 139.371C219.26 139.981 219.378 140.693 219.378 141.509C219.378 142.324 219.26 143.038 219.025 143.652C218.794 144.265 218.447 144.745 217.984 145.09C217.525 145.435 216.974 145.608 216.331 145.608C215.692 145.608 215.141 145.435 214.678 145.09C214.215 144.745 213.866 144.265 213.631 143.652ZM214.854 139.233C214.509 139.769 214.336 140.528 214.336 141.509C214.336 142.489 214.509 143.246 214.854 143.779C215.203 144.311 215.695 144.578 216.331 144.578C216.97 144.578 217.464 144.311 217.813 143.779C218.166 143.242 218.342 142.486 218.342 141.509C218.342 140.528 218.166 139.769 217.813 139.233C217.464 138.697 216.97 138.429 216.331 138.429C215.695 138.429 215.203 138.697 214.854 139.233Z" fill="white"/>
<path opacity="0.7" d="M206.241 161.869L207.122 161.351C207.24 161.711 207.445 161.982 207.739 162.166C208.033 162.35 208.399 162.442 208.836 162.442C209.324 162.442 209.723 162.313 210.031 162.056C210.34 161.799 210.494 161.442 210.494 160.987C210.494 160.524 210.34 160.164 210.031 159.907C209.723 159.65 209.324 159.521 208.836 159.521H208.566L208.147 158.877L209.976 156.408H206.467V155.422H211.205V156.348L209.491 158.662C210.094 158.776 210.586 159.035 210.968 159.439C211.354 159.843 211.547 160.359 211.547 160.987C211.547 161.376 211.471 161.731 211.321 162.05C211.174 162.37 210.974 162.633 210.72 162.838C210.47 163.04 210.184 163.196 209.861 163.307C209.537 163.417 209.196 163.472 208.836 163.472C208.237 163.472 207.704 163.334 207.238 163.059C206.771 162.783 206.439 162.386 206.241 161.869ZM212.819 161.516C212.588 160.903 212.472 160.188 212.472 159.373C212.472 158.557 212.588 157.845 212.819 157.235C213.054 156.621 213.403 156.142 213.866 155.797C214.329 155.452 214.88 155.279 215.519 155.279C216.162 155.279 216.713 155.452 217.172 155.797C217.635 156.142 217.982 156.621 218.213 157.235C218.448 157.845 218.566 158.557 218.566 159.373C218.566 160.188 218.448 160.903 218.213 161.516C217.982 162.129 217.635 162.609 217.172 162.954C216.713 163.299 216.162 163.472 215.519 163.472C214.88 163.472 214.329 163.299 213.866 162.954C213.403 162.609 213.054 162.129 212.819 161.516ZM214.042 157.097C213.697 157.633 213.525 158.392 213.525 159.373C213.525 160.353 213.697 161.11 214.042 161.643C214.391 162.175 214.884 162.442 215.519 162.442C216.158 162.442 216.652 162.175 217.001 161.643C217.354 161.106 217.53 160.35 217.53 159.373C217.53 158.392 217.354 157.633 217.001 157.097C216.652 156.561 216.158 156.293 215.519 156.293C214.884 156.293 214.391 156.561 214.042 157.097Z" fill="white"/>
<path opacity="0.7" d="M206.434 181.188V180.329L209.221 177.486C209.574 177.133 209.848 176.803 210.042 176.494C210.237 176.186 210.334 175.877 210.334 175.569C210.334 175.128 210.199 174.782 209.927 174.533C209.655 174.283 209.324 174.158 208.935 174.158C208.186 174.158 207.644 174.513 207.31 175.221L206.434 174.698C206.68 174.191 207.023 173.805 207.464 173.541C207.905 173.277 208.391 173.144 208.924 173.144C209.236 173.144 209.537 173.199 209.828 173.31C210.118 173.416 210.379 173.569 210.61 173.767C210.845 173.962 211.032 174.215 211.172 174.527C211.315 174.839 211.387 175.183 211.387 175.558C211.387 176.009 211.262 176.446 211.012 176.869C210.762 177.291 210.417 177.723 209.976 178.164L207.954 180.175H211.53V181.188H206.434ZM212.72 179.381C212.489 178.768 212.373 178.053 212.373 177.238C212.373 176.423 212.489 175.71 212.72 175.1C212.955 174.487 213.304 174.007 213.767 173.662C214.23 173.317 214.781 173.144 215.42 173.144C216.063 173.144 216.614 173.317 217.073 173.662C217.536 174.007 217.883 174.487 218.114 175.1C218.349 175.71 218.467 176.423 218.467 177.238C218.467 178.053 218.349 178.768 218.114 179.381C217.883 179.995 217.536 180.474 217.073 180.819C216.614 181.165 216.063 181.337 215.42 181.337C214.781 181.337 214.23 181.165 213.767 180.819C213.304 180.474 212.955 179.995 212.72 179.381ZM213.943 174.962C213.598 175.499 213.425 176.257 213.425 177.238C213.425 178.219 213.598 178.975 213.943 179.508C214.292 180.041 214.784 180.307 215.42 180.307C216.059 180.307 216.553 180.041 216.902 179.508C217.255 178.972 217.431 178.215 217.431 177.238C217.431 176.257 217.255 175.499 216.902 174.962C216.553 174.426 216.059 174.158 215.42 174.158C214.784 174.158 214.292 174.426 213.943 174.962Z" fill="white"/>
<path opacity="0.7" d="M207.095 191.873L209.172 191.152H210.07V199.052H209.034V192.281L207.354 192.777L207.095 191.873ZM211.811 197.245C211.58 196.632 211.464 195.917 211.464 195.102C211.464 194.287 211.58 193.574 211.811 192.964C212.046 192.351 212.395 191.871 212.858 191.526C213.321 191.181 213.872 191.008 214.511 191.008C215.154 191.008 215.704 191.181 216.164 191.526C216.626 191.871 216.974 192.351 217.205 192.964C217.44 193.574 217.558 194.287 217.558 195.102C217.558 195.917 217.44 196.632 217.205 197.245C216.974 197.859 216.626 198.338 216.164 198.683C215.704 199.029 215.154 199.201 214.511 199.201C213.872 199.201 213.321 199.029 212.858 198.683C212.395 198.338 212.046 197.859 211.811 197.245ZM213.034 192.826C212.689 193.363 212.516 194.121 212.516 195.102C212.516 196.083 212.689 196.839 213.034 197.372C213.383 197.905 213.875 198.171 214.511 198.171C215.15 198.171 215.644 197.905 215.993 197.372C216.345 196.836 216.522 196.079 216.522 195.102C216.522 194.121 216.345 193.363 215.993 192.826C215.644 192.29 215.15 192.022 214.511 192.022C213.875 192.022 213.383 192.29 213.034 192.826Z" fill="white"/>
<g opacity="0.95">
<mask id="path-32-inside-1_1386_1438" fill="white">
<path d="M212.428 77.8859C236.045 77.8859 259.246 84.1026 279.699 95.9112C300.152 107.72 317.137 124.704 328.945 145.157L212.428 212.428L212.428 77.8859Z"/>
</mask>
<path d="M212.428 77.8859C236.045 77.8859 259.246 84.1026 279.699 95.9112C300.152 107.72 317.137 124.704 328.945 145.157L212.428 212.428L212.428 77.8859Z" fill="white" stroke="#FFC201" stroke-width="3.57143" mask="url(#path-32-inside-1_1386_1438)"/>
</g>
<g opacity="0.9">
<mask id="path-33-inside-2_1386_1438" fill="white">
<path d="M287.701 169.082C295.323 182.283 299.335 197.257 299.335 212.5C299.335 227.742 295.323 242.717 287.701 255.917L212.5 212.5L287.701 169.082Z"/>
</mask>
<path d="M287.701 169.082C295.323 182.283 299.335 197.257 299.335 212.5C299.335 227.742 295.323 242.717 287.701 255.917L212.5 212.5L287.701 169.082Z" fill="white" stroke="#FFC201" stroke-width="3.57143" mask="url(#path-33-inside-2_1386_1438)"/>
</g>
<g opacity="0.8">
<mask id="path-34-inside-3_1386_1438" fill="white">
<path d="M347.22 290.28C333.566 313.929 313.929 333.566 290.281 347.22C266.632 360.873 239.807 368.061 212.5 368.061L212.5 212.5L347.22 290.28Z"/>
</mask>
<path d="M347.22 290.28C333.566 313.929 313.929 333.566 290.281 347.22C266.632 360.873 239.807 368.061 212.5 368.061L212.5 212.5L347.22 290.28Z" fill="white" stroke="#FFC201" stroke-width="3.57143" mask="url(#path-34-inside-3_1386_1438)"/>
</g>
<g opacity="0.7">
<mask id="path-35-inside-4_1386_1438" fill="white">
<path d="M212.428 346.971C188.811 346.971 165.61 340.754 145.157 328.946C124.704 317.137 107.72 300.153 95.9112 279.7L212.428 212.429L212.428 346.971Z"/>
</mask>
<path d="M212.428 346.971C188.811 346.971 165.61 340.754 145.157 328.946C124.704 317.137 107.72 300.153 95.9112 279.7L212.428 212.429L212.428 346.971Z" fill="white" stroke="#FFC201" stroke-width="3.57143" mask="url(#path-35-inside-4_1386_1438)"/>
</g>
<g opacity="0.6">
<mask id="path-36-inside-5_1386_1438" fill="white">
<path d="M98.5201 278.306C86.9687 258.298 80.8874 235.603 80.8874 212.5C80.8874 189.397 86.9687 166.701 98.5201 146.694L212.5 212.5L98.5201 278.306Z"/>
</mask>
<path d="M98.5201 278.306C86.9687 258.298 80.8874 235.603 80.8874 212.5C80.8874 189.397 86.9687 166.701 98.5201 146.694L212.5 212.5L98.5201 278.306Z" fill="white" stroke="#FFC201" stroke-width="3.57143" mask="url(#path-36-inside-5_1386_1438)"/>
</g>
<g opacity="0.5">
<mask id="path-37-inside-6_1386_1438" fill="white">
<path d="M129.782 164.742C138.165 150.222 150.222 138.164 164.742 129.781C179.262 121.398 195.733 116.985 212.5 116.985L212.5 212.499L129.782 164.742Z"/>
</mask>
<path d="M129.782 164.742C138.165 150.222 150.222 138.164 164.742 129.781C179.262 121.398 195.733 116.985 212.5 116.985L212.5 212.499L129.782 164.742Z" fill="white" stroke="#FFC201" stroke-width="3.57143" mask="url(#path-37-inside-6_1386_1438)"/>
</g>
</svg>